<?xml version="1.0" encoding="UTF-8" standalone="no"?>
<svg
   width="2000pt"
   height="2000pt"
   viewBox="0 0 2000 2000"
   version="1.1"
   id="svg169"
   sodipodi:docname="icon.svg"
   inkscape:version="1.4.3 (0d15f75042, 2025-12-25)"
   inkscape:export-filename="../dev/icewolf-biz/static/favicon.png"
   inkscape:export-xdpi="7.8994288"
   inkscape:export-ydpi="7.8994288"
   xml:space="preserve"
   xmlns:inkscape="http://www.inkscape.org/namespaces/inkscape"
   xmlns:sodipodi="http://sodipodi.sourceforge.net/DTD/sodipodi-0.dtd"
   xmlns="http://www.w3.org/2000/svg"
   xmlns:svg="http://www.w3.org/2000/svg"><defs
     id="defs173"><rect
       x="1401.119"
       y="2209.7087"
       width="28.371568"
       height="38.192495"
       id="rect3" /><rect
       x="1494.9634"
       y="2280.6376"
       width="61.107993"
       height="39.28371"
       id="rect2" /><radialGradient
       id="radial-gradient"
       cx="245.80686"
       cy="144.7398"
       r="304.80541"
       gradientTransform="matrix(2.0049706,0,0,1.4415231,160.62898,563.93874)"
       gradientUnits="userSpaceOnUse"
       fx="245.80686"
       fy="144.7398"><stop
         offset="0.2"
         stop-color="#f024f6"
         id="stop1" /><stop
         offset="0.386"
         stop-color="#c416f8"
         id="stop2" /><stop
         offset="0.61"
         stop-color="#9406f9"
         id="stop3" /><stop
         offset="0.722"
         stop-color="#8200fa"
         id="stop4" /></radialGradient><clipPath
       id="clip-Make-IconColor-transparent"><rect
         width="512"
         height="512"
         id="rect4" /></clipPath></defs><sodipodi:namedview
     id="namedview171"
     pagecolor="#505050"
     bordercolor="#eeeeee"
     borderopacity="1"
     inkscape:showpageshadow="0"
     inkscape:pageopacity="0"
     inkscape:pagecheckerboard="0"
     inkscape:deskcolor="#505050"
     inkscape:document-units="pt"
     showgrid="false"
     inkscape:zoom="0.324"
     inkscape:cx="995.37037"
     inkscape:cy="1635.8025"
     inkscape:window-width="3840"
     inkscape:window-height="2094"
     inkscape:window-x="0"
     inkscape:window-y="0"
     inkscape:window-maximized="1"
     inkscape:current-layer="layer1" /><rect
     x="-200"
     y="-200"
     width="2400"
     height="2400"
     fill="#141516"
     fill-opacity="1"
     id="rect165"
     style="display:none" /><g
     inkscape:groupmode="layer"
     id="layer1"
     inkscape:label="circle bg"><circle
       style="fill:#f48200;fill-opacity:1;stroke-width:0.723223"
       id="path275"
       cx="1000"
       cy="-1000"
       transform="scale(1,-1)"
       r="875" /></g><path
     fill-rule="nonzero"
     fill="#80a4ff"
     fill-opacity="1"
     d="m 1465.82,1206.8667 c 6.1521,0.1436 12.2217,1.7998 17.4722,5.0873 26.1411,16.3698 -4.7969,41.5197 -25.3201,58.8539 -4.0189,3.3953 -0.536,10.0131 4.4456,8.443 62.715,-19.7739 65.9524,-58.712 56.6579,-94.2697 -4.5245,-17.3089 -13.3099,-30.6422 -21.882,-46.2645 -17.1692,-31.2911 -27.706,-55.2113 -28.7941,-70.7025 -1.2118,-17.2716 2.8968,-39.6393 21.5468,-55.0482 30.5095,-25.20556 85.9664,-40.02297 109.8829,-37.89877 10.8182,0.96084 12.6466,11.66605 7.6166,22.94492 -24.2302,54.33645 -70.0197,46.48345 -91.6722,54.57325 -8.7531,3.2714 -13.0732,12.1248 -11.286,20.9372 8.8858,43.8571 44.8663,74.5497 64.8642,88.01 15.4771,10.4184 20.8136,8.6832 27.3565,-2.8664 l 67.9923,-111.127 c 10.0743,-17.7803 9.7911,-35.3638 3.4167,-55.34572 -5.5283,-18.74314 -12.9424,-32.77899 -8.7836,-50.8338 28.0448,-121.73723 -25.3865,-175.45168 -57.409,-213.40405 -11.8256,-14.01434 -31.2553,-7.04302 -35.6059,10.93469 -12.3687,51.09372 -29.1454,77.47502 -44.6297,98.75108 -22.3157,30.66375 -48.9265,52.78589 -86.2174,52.906 -37.2909,-0.12013 -63.9016,-22.24225 -86.2174,-52.906 -15.486,-21.27606 -32.2609,-47.65736 -44.6297,-98.75108 -4.3505,-17.97771 -23.782,-24.94903 -35.6058,-10.93469 -32.0226,37.95237 -85.452,91.66682 -57.409,213.40405 4.1588,18.05481 -3.2553,32.09066 -8.7836,50.8338 -6.3744,19.98192 -6.6576,37.56542 3.4184,55.34572 l 67.9905,111.127 c 6.5429,11.5496 11.8812,13.2848 27.3565,2.8664 19.998,-13.4603 55.9785,-44.1529 64.8661,-88.01 1.7836,-8.8124 -2.5347,-17.6658 -11.2879,-20.9372 -21.6525,-8.0898 -67.442,-0.2368 -91.6722,-54.57325 -5.0299,-11.27887 -3.2015,-21.98408 7.6149,-22.94492 23.9183,-2.1242 79.3751,12.69321 109.8829,37.89877 18.6517,15.4089 22.7603,37.7766 21.5486,55.0482 -1.0881,15.4912 -11.6249,39.4114 -28.7941,70.7025 -8.5721,15.6223 -17.3575,28.9556 -21.882,46.2645 -9.2945,35.5577 -6.0553,74.4958 56.6579,94.2697 4.9815,1.5701 8.4645,-5.0477 4.4455,-8.443 -20.5231,-17.3342 -51.4611,-42.4841 -25.32,-58.8539 5.2504,-3.2875 11.3201,-4.9437 17.4722,-5.0873 z m 0,0"
     id="path167"
     style="stroke-width:0.458898;fill:#ffffff;fill-opacity:1" /><path
     id="Path_203368"
     data-name="Path 203368"
     d="m 507.25131,1145.1357 74.33884,-315.50963 a 11.390417,11.390417 0 0 1 13.74143,-8.56492 l 88.54442,21.6078 a 11.614826,11.614826 0 0 1 8.40852,13.98809 l -74.33866,315.50956 a 11.390417,11.390417 0 0 1 -13.74161,8.565 l -88.54442,-21.6079 a 11.652227,11.652227 0 0 1 -8.40852,-13.988 z m 207.50134,33.5897 h 91.09598 a 11.48562,11.48562 0 0 0 11.3905,-11.5893 V 842.66895 a 11.48562,11.48562 0 0 0 -11.3905,-11.59104 h -91.09111 a 11.48562,11.48562 0 0 0 -11.39031,11.59104 v 324.46715 a 11.48562,11.48562 0 0 0 11.38706,11.591 z m -394.73934,-46.2008 81.86671,40.6602 a 11.274812,11.274812 0 0 0 15.20865,-5.3431 L 556.88981,876.25718 a 11.660728,11.660728 0 0 0 -5.24983,-15.47056 l -81.86644,-40.66209 a 11.274812,11.274812 0 0 0 -15.20711,5.34158 L 314.80435,1117.0115 a 11.691329,11.691329 0 0 0 5.20896,15.5148 z"
     fill="url(#radial-gradient)"
     style="fill:#ffffff;stroke-width:1.70006;fill-opacity:1" /><g
     style="fill:none;stroke:#ffffff;stroke-width:2.91312;stroke-linecap:round;stroke-linejoin:round;stroke-dasharray:none;stroke-opacity:1"
     id="g1"
     transform="matrix(10.298228,0,0,10.298228,876.42126,876.42126)"><path
       d="M 5,12 H 19"
       id="path1"
       style="stroke:#ffffff;stroke-width:2.91312;stroke-dasharray:none;stroke-opacity:1" /><path
       d="M 12,5 V 19"
       id="path2"
       style="stroke:#ffffff;stroke-width:2.91312;stroke-dasharray:none;stroke-opacity:1" /></g><path
     style="font-weight:bold;font-size:115.776px;font-family:'Avenir Next LT Pro';-inkscape-font-specification:'Avenir Next LT Pro Bold';fill:#ffffff;stroke-width:9.82004;fill-opacity:1"
     d="m 802.1967,1542.2819 v -57.6565 h -18.98727 v 31.1438 c 0,6.5992 -3.58905,12.388 -10.18828,12.388 -6.94656,0 -8.56743,-5.7888 -8.56743,-12.2723 v -31.2595 h -19.10304 v 35.659 c 0,11.5776 5.44147,23.6183 20.95546,23.6183 8.10432,0 14.70355,-4.5152 17.3664,-9.6094 h 0.23155 v 7.9886 z m 71.78116,0 v -35.659 c 0,-11.5776 -5.55725,-23.6184 -21.07124,-23.6184 -7.98854,0 -14.58777,4.5153 -17.25062,9.6095 h -0.23155 v -7.9886 h -18.40839 v 57.6565 h 19.10304 v -31.2596 c 0,-6.5992 3.47328,-12.388 10.18829,-12.388 6.83079,0 8.56743,5.7888 8.56743,12.1565 v 31.4911 z m 75.48585,-29.0598 c 0,-18.8715 -14.58778,-30.4491 -32.06995,-30.4491 -17.3664,0 -31.95418,11.5776 -31.95418,30.4491 0,18.8715 14.58778,30.9122 31.95418,30.9122 17.48217,0 32.06995,-12.0407 32.06995,-30.9122 z m -18.29261,0 c 0,7.4096 -4.74682,14.9351 -13.66157,14.9351 -8.91475,0 -13.66157,-7.5255 -13.66157,-14.9351 0,-7.4097 4.63104,-14.7036 13.5458,-14.7036 8.91475,0 13.77734,7.2939 13.77734,14.7036 z m 67.38164,-59.5089 c -2.54707,-0.8104 -5.90457,-1.1577 -9.1463,-1.1577 -19.21882,0 -24.77607,12.388 -24.77607,26.5127 v 5.5572 h -10.53561 v 14.2405 h 10.53561 v 43.416 h 18.98727 v -43.416 h 12.85113 v -14.2405 h -12.85113 v -5.7888 c 0,-5.3257 1.50509,-10.8829 8.45165,-10.8829 1.85241,0 3.8206,0.3473 5.20992,0.8104 z m 64.95026,12.5038 c 0,-5.7888 -4.9783,-10.4198 -10.8829,-10.4198 -6.1362,0 -10.883,4.8626 -10.883,10.4198 0,5.6731 4.7468,10.4199 10.883,10.4199 5.9046,0 10.8829,-4.5153 10.8829,-10.4199 z m -1.3893,76.0649 v -57.6565 h -19.103 v 57.6565 z m -24.8918,-88.5687 c -2.5471,-0.8104 -5.9046,-1.1577 -9.1463,-1.1577 -19.2189,0 -24.7761,12.388 -24.7761,26.5127 v 5.5572 h -10.53561 v 14.2405 h 10.53561 v 43.416 h 18.9873 v -43.416 h 12.8511 v -14.2405 h -12.8511 v -5.7888 c 0,-5.3257 1.5051,-10.8829 8.4516,-10.8829 1.8524,0 3.8206,0.3473 5.2099,0.8104 z m 90.6527,36.8168 c -4.5153,-4.6311 -13.1985,-7.757 -21.4186,-7.757 -17.9453,0 -32.1857,11.9249 -32.1857,30.6806 0,19.1031 14.1247,30.6807 32.3015,30.6807 8.4517,0 16.556,-2.7786 21.3028,-7.4097 l -10.5356,-12.8511 c -2.3155,2.7786 -6.4835,4.2837 -10.3041,4.2837 -8.3359,0 -13.5458,-6.715 -13.5458,-14.7036 0,-7.9885 5.3257,-14.8193 13.3143,-14.8193 3.8206,0 7.9885,1.8524 10.0725,4.631 z m 28.1336,-24.313 c 0,-5.7888 -4.8626,-10.4198 -10.8829,-10.4198 -6.1362,0 -10.883,4.8626 -10.883,10.4198 0,5.6731 4.7468,10.4199 10.883,10.4199 6.0203,0 10.8829,-4.5153 10.8829,-10.4199 z m -1.3893,76.0649 v -57.6565 h -18.9873 v 57.6565 z m 49.0889,-23.1552 c 0,7.1781 -4.2837,11.8091 -11.9249,11.8091 -3.8206,0 -8.2201,-1.5051 -8.2201,-5.9046 0,-6.8307 9.3779,-7.8727 17.7138,-7.8727 h 2.4312 z m -25.2391,-16.3245 c 3.4733,-3.2417 8.799,-5.9045 14.2404,-5.9045 5.9046,0 10.4199,2.6628 10.4199,8.3358 v 0.9262 c -16.7876,0 -37.0484,2.7787 -37.0484,19.4504 0,13.5458 11.8092,18.0611 20.9555,18.0611 6.8308,0 13.43,-2.7787 16.3244,-7.5255 h 0.3473 v 6.1362 h 17.3664 v -29.0598 c 0,-20.9555 -7.1781,-30.4491 -26.5127,-30.4491 -9.3778,0 -18.9872,3.3575 -25.7022,9.7252 z m 76.1806,39.4797 v -87.5267 h -19.2188 v 87.5267 z"
     id="text1"
     aria-label="unofficial" /><text
     xml:space="preserve"
     transform="scale(0.75)"
     id="text2"
     style="font-style:normal;font-variant:normal;font-weight:normal;font-stretch:normal;font-size:18.6667px;font-family:PLZ;-inkscape-font-specification:PLZ;writing-mode:lr-tb;direction:ltr;white-space:pre;shape-inside:url(#rect2);display:inline;fill:#ffffff;fill-opacity:1;stroke:none;stroke-width:26.6667;stroke-dasharray:none;stroke-opacity:1" /><text
     xml:space="preserve"
     transform="scale(0.75)"
     id="text3"
     style="font-style:normal;font-variant:normal;font-weight:normal;font-stretch:normal;font-size:18.6667px;font-family:PLZ;-inkscape-font-specification:PLZ;writing-mode:lr-tb;direction:ltr;white-space:pre;shape-inside:url(#rect3);display:inline;fill:#ffffff;fill-opacity:1;stroke:none;stroke-width:26.6667;stroke-dasharray:none;stroke-opacity:1" /></svg>
